<?xml version="1.0" encoding="UTF-8" standalone="no"?>
<!-- Created with Inkscape (http://www.inkscape.org/) -->

<svg
   xmlns:ns0="http://www.iki.fi/pav/software/textext/"
   xmlns:dc="http://purl.org/dc/elements/1.1/"
   xmlns:cc="http://creativecommons.org/ns#"
   xmlns:rdf="http://www.w3.org/1999/02/22-rdf-syntax-ns#"
   xmlns:svg="http://www.w3.org/2000/svg"
   xmlns="http://www.w3.org/2000/svg"
   xmlns:sodipodi="http://sodipodi.sourceforge.net/DTD/sodipodi-0.dtd"
   xmlns:inkscape="http://www.inkscape.org/namespaces/inkscape"
   id="svg497"
   version="1.1"
   viewBox="0 0 210 297"
   height="297mm"
   width="210mm"
   inkscape:version="0.92.2 (5c3e80d, 2017-08-06)"
   sodipodi:docname="electricCircuit.svg"
   inkscape:export-filename="C:\Users\wu\Downloads\University Fun\School\Spring 2018\ELEC 460\Notes\Inkscape\electricCircuit.png"
   inkscape:export-xdpi="239.83511"
   inkscape:export-ydpi="239.83511">
  <sodipodi:namedview
     inkscape:window-maximized="1"
     inkscape:window-y="-8"
     inkscape:window-x="-8"
     inkscape:window-height="745"
     inkscape:window-width="1366"
     showgrid="false"
     inkscape:current-layer="svg497"
     inkscape:document-units="mm"
     inkscape:cy="394.18316"
     inkscape:cx="410.80893"
     inkscape:zoom="0.98994949"
     inkscape:pageshadow="2"
     inkscape:pageopacity="0.0"
     borderopacity="1.0"
     bordercolor="#666666"
     pagecolor="#ffffff"
     id="base" />
  <defs
     id="defs491">
    <marker
       inkscape:stockid="arrowVoltageStart"
       style="overflow:visible"
       refY="0.0"
       refX="0.0"
       orient="auto"
       id="arrowVoltageStart">
      <path
         id="path499"
         transform="scale(0.25) rotate(0) translate(7.2925,0)"
         style="stroke-width:1.0;stroke:#217B21;fill:#217B21;fill-rule:evenodd"
         d="M 0.0,0.0 L 5.0,-5.0 L -12.5,0.0 L 5.0,5.0 L 0.0,0.0 z " />
    </marker>
    <marker
       inkscape:stockid="arrowVoltageEnd"
       style="overflow:visible"
       refY="0.0"
       refX="0.0"
       orient="auto"
       id="arrowVoltageEnd">
      <path
         id="path502"
         transform="scale(0.25) rotate(180) translate(7.2925,0)"
         style="stroke-width:1.0;stroke:#217B21;fill:#217B21;fill-rule:evenodd"
         d="M 0.0,0.0 L 5.0,-5.0 L -12.5,0.0 L 5.0,5.0 L 0.0,0.0 z " />
    </marker>
    <marker
       inkscape:stockid="arrowCurrentStart"
       style="overflow:visible"
       refY="0.0"
       refX="0.0"
       orient="auto"
       id="arrowCurrentStart">
      <path
         id="path505"
         transform="scale(0.25) rotate(0) translate(7.2925,0)"
         style="stroke-width:1.0;stroke:#FF0000;fill:#FF0000;fill-rule:evenodd"
         d="M 0.0,0.0 L 5.0,-5.0 L -12.5,0.0 L 5.0,5.0 L 0.0,0.0 z " />
    </marker>
    <marker
       inkscape:stockid="arrowCurrentEnd"
       style="overflow:visible"
       refY="0.0"
       refX="0.0"
       orient="auto"
       id="arrowCurrentEnd">
      <path
         id="path508"
         transform="scale(0.25) rotate(180) translate(7.2925,0)"
         style="stroke-width:1.0;stroke:#FF0000;fill:#FF0000;fill-rule:evenodd"
         d="M 0.0,0.0 L 5.0,-5.0 L -12.5,0.0 L 5.0,5.0 L 0.0,0.0 z " />
    </marker>
  </defs>
  <metadata
     id="metadata494">
    <rdf:RDF>
      <cc:Work
         rdf:about="">
        <dc:format>image/svg+xml</dc:format>
        <dc:type
           rdf:resource="http://purl.org/dc/dcmitype/StillImage" />
        <dc:title />
      </cc:Work>
    </rdf:RDF>
  </metadata>
  <g
     id="layer1"
     inkscape:groupmode="layer"
     inkscape:label="Layer 1" />
  <g
     id="g1101"
     transform="rotate(90.000000 70.000000 190.000000)"
     inkscape:label="Common" />
  <g
     id="g1654"
     transform="rotate(-90.000000 70.000000 190.000000)"
     inkscape:label="Common" />
  <g
     inkscape:label="GND"
     transform="matrix(0,-1,0.96389337,0,-65.988201,239.15298)"
     id="g1801" />
  <g
     id="g1059"
     inkscape:export-xdpi="239.83511"
     inkscape:export-ydpi="239.83511">
    <g
       inkscape:label="Resistor"
       id="g576">
      <g
         id="g517">
        <path
           d="m 50,170 h 15.5 l 2,3 3,-6 3,6 3,-6 3,6 3,-6 2,3 39.55426,0"
           style="fill:none;stroke:#000000;stroke-width:1;stroke-linecap:round;stroke-linejoin:round;stroke-dasharray:none"
           inkscape:label="none"
           id="path515"
           inkscape:connector-curvature="0"
           sodipodi:nodetypes="cccccccccc" />
      </g>
      <g
         inkscape:label="name"
         id="g552">
        <path
           d="M 85.0 175.0 a 30.000000,30.000000 0 0 1 -20.000000,0.000000"
           style="stroke-linejoin:round;marker-start:url(#arrowVoltageStart);stroke:#217B21;stroke-linecap:round;stroke-dasharray:none;stroke-width:1.0;fill:none"
           sodipodi:cx="75.0"
           sodipodi:cy="146.715728753"
           sodipodi:end="1.91063323625"
           sodipodi:open="true"
           sodipodi:rx="30.0"
           sodipodi:ry="30.0"
           sodipodi:start="1.23095941734"
           sodipodi:type="arc"
           inkscape:label="arc"
           id="path536" />
        <g
           id="g550"
           xml:space="preserve"
           stroke="black"
           stroke-linecap="butt"
           stroke-linejoin="miter"
           stroke-miterlimit="10.433"
           stroke-dasharray="none"
           stroke-dashoffset="0"
           stroke-opacity="1"
           fill="none"
           fill-rule="evenodd"
           fill-opacity="1"
           font-style="normal"
           font-variant="normal"
           font-weight="normal"
           font-stretch="normal"
           font-size-adjust="none"
           letter-spacing="normal"
           word-spacing="normal"
           text-anchor="start"
           ns0:text=" $v_a = 5V$"
           ns0:preamble="C:\\Program Files\\Inkscape\\share\\extensions/textextLib/CircuitSymbolsLatexPreamble.tex"
           transform="translate(75.000000 180.715729) translate(-178.528114 358.002973) scale(0.739645 -0.739645)  "><path
             d="M228.1,480.93 L228.1,480.95 L228.1,480.98 L228.1,481 L228.1,481.03 L228.09,481.05 L228.09,481.07 L228.09,481.09 L228.09,481.11 L228.08,481.15 L228.07,481.19 L228.07,481.23 L228.06,481.27 L228.05,481.3 L228.03,481.33 L228.02,481.36 L228.01,481.39 L227.99,481.41 L227.98,481.44 L227.96,481.46 L227.95,481.48 L227.93,481.5 L227.91,481.52 L227.9,481.53 L227.88,481.55 L227.86,481.56 L227.84,481.57 L227.82,481.58 L227.8,481.59 L227.79,481.6 L227.77,481.61 L227.75,481.61 L227.73,481.62 L227.71,481.62 L227.69,481.62 L227.68,481.63 L227.66,481.63 C227.41,481.63,227.17,481.37,227.17,481.15 C227.17,481.02,227.22,480.96,227.33,480.85 C227.54,480.65,227.67,480.39,227.67,480.04 C227.67,479.62,227.06,477.34,225.9,477.34 C225.39,477.34,225.16,477.69,225.16,478.21 C225.16,478.77,225.43,479.49,225.74,480.31 C225.8,480.48,225.85,480.62,225.85,480.81 C225.85,481.26,225.54,481.63,225.04,481.63 C224.1,481.63,223.72,480.18,223.72,480.1 C223.72,480,223.82,480,223.84,480 C223.94,480,223.95,480.02,224,480.17 C224.29,481.18,224.72,481.41,225.01,481.41 C225.09,481.41,225.26,481.41,225.26,481.09 C225.26,480.84,225.16,480.57,225.09,480.39 C224.65,479.24,224.52,478.79,224.52,478.36 C224.52,477.29,225.4,477.13,225.85,477.13 C227.53,477.13,228.1,480.41,228.1,480.93 Z "
             stroke-width="0"
             fill="black"
             style="fill:#217B21;stroke-width:0"
             id="path538" /><path
             d="M231.21,478.4 L231.2,478.42 L231.18,478.44 L231.17,478.46 L231.15,478.48 L231.14,478.5 L231.12,478.52 L231.1,478.54 L231.08,478.56 L231.07,478.58 L231.05,478.59 L231.03,478.61 L231.01,478.63 L230.99,478.64 L230.97,478.66 L230.94,478.67 L230.92,478.69 L230.9,478.7 L230.88,478.72 L230.85,478.73 L230.83,478.74 L230.8,478.75 L230.78,478.76 L230.75,478.77 L230.72,478.78 L230.7,478.78 L230.67,478.79 L230.64,478.8 L230.61,478.8 L230.58,478.8 L230.55,478.81 L230.52,478.81 L230.49,478.81 V478.61 C230.98,478.61,231.11,478.08,231.11,478.01 C231.11,477.98,231.1,477.93,231.09,477.91 L230.76,476.61 C230.71,476.42,230.56,476.28,230.41,476.14 C230.35,476.09,230.07,475.87,229.76,475.87 C229.51,475.87,229.25,476.05,229.25,476.54 C229.25,476.91,229.46,477.67,229.62,477.95 C229.94,478.51,230.3,478.61,230.49,478.61 V478.81 C229.6,478.81,228.69,477.83,228.69,476.83 C228.69,476.15,229.14,475.67,229.74,475.67 C230.12,475.67,230.46,475.89,230.74,476.16 C230.87,475.74,231.27,475.67,231.46,475.67 C231.71,475.67,231.88,475.82,232.01,476.04 C232.16,476.31,232.25,476.71,232.25,476.73 C232.25,476.83,232.16,476.83,232.14,476.83 C232.04,476.83,232.04,476.8,231.99,476.61 C231.9,476.28,231.77,475.87,231.48,475.87 C231.29,475.87,231.25,476.02,231.25,476.21 C231.25,476.33,231.3,476.58,231.35,476.76 C231.4,476.94,231.47,477.23,231.51,477.38 L231.65,477.91 C231.69,478.09,231.77,478.42,231.77,478.45 C231.77,478.61,231.65,478.67,231.53,478.67 C231.41,478.67,231.25,478.59,231.21,478.4 Z "
             stroke-width="0"
             fill="black"
             style="fill:#217B21;stroke-width:0"
             id="path540" /><path
             d="M242.7,480.48 L242.73,480.48 L242.76,480.48 L242.79,480.48 L242.8,480.49 L242.81,480.49 L242.83,480.49 L242.84,480.49 L242.86,480.49 L242.87,480.49 L242.89,480.5 L242.9,480.5 L242.91,480.5 L242.92,480.51 L242.94,480.51 L242.95,480.52 L242.96,480.52 L242.97,480.53 L242.98,480.54 L242.99,480.55 L243,480.56 L243.01,480.57 L243.01,480.57 L243.01,480.58 L243.02,480.58 L243.02,480.59 L243.02,480.6 L243.02,480.6 L243.03,480.61 L243.03,480.62 L243.03,480.62 L243.03,480.63 L243.03,480.64 L243.04,480.65 L243.04,480.66 L243.04,480.66 L243.04,480.67 L243.04,480.68 C243.04,480.88,242.85,480.88,242.71,480.88 H236.74 C236.6,480.88,236.41,480.88,236.41,480.68 C236.41,480.48,236.6,480.48,236.75,480.48 Z "
             stroke-width="0"
             fill="black"
             style="fill:#217B21;stroke-width:0"
             id="path542" /><path
             d="M242.71,478.56 L242.72,478.56 L242.74,478.56 L242.76,478.56 L242.79,478.56 L242.81,478.56 L242.82,478.56 L242.83,478.56 L242.85,478.56 L242.86,478.56 L242.87,478.57 L242.89,478.57 L242.9,478.57 L242.91,478.58 L242.93,478.58 L242.94,478.59 L242.95,478.59 L242.96,478.6 L242.97,478.6 L242.98,478.61 L242.99,478.62 L243,478.63 L243,478.63 L243.01,478.64 L243.01,478.65 L243.01,478.65 L243.02,478.66 L243.02,478.66 L243.02,478.67 L243.02,478.68 L243.03,478.68 L243.03,478.69 L243.03,478.7 L243.03,478.7 L243.03,478.71 L243.04,478.72 L243.04,478.73 L243.04,478.74 L243.04,478.75 L243.04,478.76 C243.04,478.95,242.85,478.95,242.7,478.95 H236.75 C236.6,478.95,236.41,478.95,236.41,478.76 C236.41,478.56,236.6,478.56,236.74,478.56 Z "
             stroke-width="0"
             fill="black"
             style="fill:#217B21;stroke-width:0"
             id="path544" /><path
             d="M250.84,479.23 L250.84,479.34 L250.83,479.45 L250.82,479.56 L250.81,479.66 L250.79,479.77 L250.76,479.87 L250.73,479.97 L250.7,480.07 L250.66,480.17 L250.62,480.26 L250.58,480.35 L250.53,480.44 L250.48,480.53 L250.42,480.61 L250.36,480.69 L250.3,480.76 L250.24,480.84 L250.17,480.9 L250.1,480.97 L250.02,481.03 L249.95,481.09 L249.87,481.14 L249.78,481.19 L249.7,481.23 L249.61,481.27 L249.52,481.31 L249.43,481.34 L249.34,481.36 L249.24,481.38 L249.15,481.4 L249.05,481.4 L248.95,481.41 C248.47,481.41,248.04,481.25,247.68,480.9 V482.84 C247.88,482.78,248.21,482.71,248.53,482.71 C249.76,482.71,250.46,483.61,250.46,483.74 C250.46,483.8,250.43,483.85,250.35,483.85 C250.35,483.85,250.32,483.85,250.28,483.82 C250.08,483.73,249.59,483.53,248.92,483.53 C248.52,483.53,248.06,483.6,247.59,483.81 C247.51,483.84,247.49,483.84,247.47,483.84 C247.37,483.84,247.37,483.76,247.37,483.6 V480.66 C247.37,480.48,247.37,480.4,247.51,480.4 C247.58,480.4,247.6,480.43,247.64,480.49 C247.75,480.65,248.12,481.19,248.93,481.19 C249.45,481.19,249.7,480.73,249.78,480.55 C249.94,480.18,249.96,479.8,249.96,479.3 C249.96,478.95,249.96,478.36,249.72,477.94 C249.48,477.55,249.11,477.3,248.65,477.3 C247.92,477.3,247.35,477.82,247.18,478.41 C247.21,478.4,247.24,478.39,247.35,478.39 C247.68,478.39,247.85,478.64,247.85,478.87 C247.85,479.11,247.68,479.36,247.35,479.36 C247.21,479.36,246.87,479.29,246.87,478.83 C246.87,477.98,247.55,477.02,248.67,477.02 C249.83,477.02,250.84,477.97,250.84,479.23 Z "
             stroke-width="0"
             fill="black"
             style="fill:#217B21;stroke-width:0"
             id="path546" /><path
             d="M257.61,482.89 L257.65,482.96 L257.7,483.02 L257.74,483.09 L257.79,483.14 L257.83,483.2 L257.88,483.25 L257.92,483.3 L257.96,483.34 L258,483.38 L258.05,483.42 L258.09,483.45 L258.13,483.48 L258.17,483.51 L258.21,483.54 L258.25,483.56 L258.29,483.58 L258.33,483.6 L258.37,483.62 L258.41,483.63 L258.45,483.65 L258.49,483.66 L258.52,483.67 L258.56,483.68 L258.6,483.68 L258.64,483.69 L258.67,483.69 L258.74,483.7 L258.82,483.71 L258.89,483.71 C259.01,483.72,259.02,483.89,259.02,483.9 C259.02,483.98,258.96,484.02,258.89,484.02 C258.63,484.02,258.34,483.99,258.07,483.99 C257.74,483.99,257.4,484.02,257.08,484.02 C257.02,484.02,256.89,484.02,256.89,483.83 C256.89,483.72,256.98,483.71,257.05,483.71 C257.32,483.69,257.51,483.59,257.51,483.38 C257.51,483.23,257.36,483.02,257.36,483.01 L254.3,478.16 L253.62,483.41 C253.62,483.58,253.85,483.71,254.31,483.71 C254.45,483.71,254.56,483.71,254.56,483.91 C254.56,484,254.48,484.02,254.42,484.02 C254.02,484.02,253.59,483.99,253.18,483.99 C253,483.99,252.81,484,252.63,484 C252.45,484,252.26,484.02,252.09,484.02 C252.02,484.02,251.9,484.02,251.9,483.83 C251.9,483.71,251.99,483.71,252.15,483.71 C252.71,483.71,252.72,483.62,252.75,483.37 L253.54,477.24 C253.57,477.05,253.61,477.02,253.74,477.02 C253.9,477.02,253.94,477.07,254.02,477.2 Z "
             stroke-width="0"
             fill="black"
             style="fill:#217B21;stroke-width:0"
             id="path548" /></g>      </g>
      <g
         inkscape:label="name"
         id="g574">
        <path
           d="m 95.0 165 -10.0 0"
           style="stroke-linejoin:round;marker-end:url(#arrowCurrentEnd);stroke:#FF0000;stroke-linecap:round;stroke-dasharray:none;stroke-width:1.0;fill:none"
           inkscape:label="none"
           id="path554" />
        <g
           id="g572"
           xml:space="preserve"
           stroke="black"
           stroke-linecap="butt"
           stroke-linejoin="miter"
           stroke-miterlimit="10.433"
           stroke-dasharray="none"
           stroke-dashoffset="0"
           stroke-opacity="1"
           fill="none"
           fill-rule="evenodd"
           fill-opacity="1"
           font-style="normal"
           font-variant="normal"
           font-weight="normal"
           font-stretch="normal"
           font-size-adjust="none"
           letter-spacing="normal"
           word-spacing="normal"
           text-anchor="start"
           ns0:text=" $i_a  = 69 A$"
           ns0:preamble="C:\\Program Files\\Inkscape\\share\\extensions/textextLib/CircuitSymbolsLatexPreamble.tex"
           transform="translate(90.000000 162.333333) translate(-179.674563 351.826937) scale(0.739645 -0.739645)  "><path
             d="M226.26,483.44 L226.26,483.46 L226.26,483.48 L226.26,483.5 L226.26,483.52 L226.25,483.53 L226.25,483.55 L226.24,483.57 L226.24,483.58 L226.23,483.6 L226.22,483.61 L226.22,483.63 L226.21,483.64 L226.2,483.66 L226.19,483.67 L226.18,483.68 L226.17,483.7 L226.15,483.71 L226.14,483.72 L226.13,483.73 L226.11,483.74 L226.1,483.75 L226.08,483.76 L226.07,483.77 L226.05,483.77 L226.03,483.78 L226.01,483.79 L226,483.79 L225.98,483.79 L225.96,483.8 L225.94,483.8 L225.92,483.8 L225.9,483.8 C225.63,483.8,225.36,483.54,225.36,483.27 C225.36,483.09,225.5,482.92,225.74,482.92 C225.96,482.92,226.26,483.15,226.26,483.44 Z "
             stroke-width="0"
             fill="black"
             style="fill:#FF0000;stroke-width:0"
             id="path556" /><path
             d="M225.51,479.71 L225.52,479.73 L225.53,479.76 L225.54,479.78 L225.55,479.8 L225.55,479.83 L225.56,479.85 L225.57,479.86 L225.58,479.88 L225.58,479.9 L225.59,479.92 L225.6,479.93 L225.6,479.95 L225.61,479.96 L225.61,479.98 L225.62,480 L225.63,480.03 L225.64,480.06 L225.65,480.08 L225.65,480.09 L225.66,480.11 L225.67,480.12 L225.67,480.14 L225.68,480.16 L225.69,480.18 L225.69,480.19 L225.7,480.22 L225.71,480.24 L225.72,480.26 L225.73,480.29 C225.8,480.48,225.85,480.62,225.85,480.81 C225.85,481.26,225.54,481.63,225.04,481.63 C224.1,481.63,223.72,480.18,223.72,480.1 C223.72,480,223.82,480,223.84,480 C223.94,480,223.95,480.02,224,480.17 C224.27,481.11,224.67,481.41,225.01,481.41 C225.09,481.41,225.26,481.41,225.26,481.09 C225.26,480.88,225.19,480.67,225.15,480.57 C225.07,480.31,224.62,479.16,224.46,478.73 C224.36,478.48,224.23,478.15,224.23,477.94 C224.23,477.47,224.57,477.13,225.05,477.13 C225.99,477.13,226.35,478.57,226.35,478.66 C226.35,478.76,226.26,478.76,226.23,478.76 C226.13,478.76,226.13,478.73,226.09,478.58 C225.9,477.95,225.58,477.34,225.07,477.34 C224.9,477.34,224.83,477.44,224.83,477.67 C224.83,477.92,224.89,478.06,225.12,478.67 Z "
             stroke-width="0"
             fill="black"
             style="fill:#FF0000;stroke-width:0"
             id="path558" /><path
             d="M229.82,478.4 L229.8,478.42 L229.79,478.44 L229.77,478.46 L229.76,478.48 L229.74,478.5 L229.72,478.52 L229.71,478.54 L229.69,478.56 L229.67,478.58 L229.65,478.59 L229.63,478.61 L229.61,478.63 L229.59,478.64 L229.57,478.66 L229.55,478.67 L229.53,478.69 L229.5,478.7 L229.48,478.72 L229.46,478.73 L229.43,478.74 L229.41,478.75 L229.38,478.76 L229.35,478.77 L229.33,478.78 L229.3,478.78 L229.27,478.79 L229.24,478.8 L229.22,478.8 L229.19,478.8 L229.16,478.81 L229.13,478.81 L229.09,478.81 V478.61 C229.58,478.61,229.72,478.08,229.72,478.01 C229.72,477.98,229.7,477.93,229.7,477.91 L229.37,476.61 C229.32,476.42,229.16,476.28,229.01,476.14 C228.95,476.09,228.67,475.87,228.37,475.87 C228.11,475.87,227.86,476.05,227.86,476.54 C227.86,476.91,228.06,477.67,228.22,477.95 C228.54,478.51,228.9,478.61,229.09,478.61 V478.81 C228.2,478.81,227.29,477.83,227.29,476.83 C227.29,476.15,227.74,475.67,228.35,475.67 C228.72,475.67,229.06,475.89,229.34,476.16 C229.47,475.74,229.88,475.67,230.06,475.67 C230.31,475.67,230.49,475.82,230.61,476.04 C230.77,476.31,230.86,476.71,230.86,476.73 C230.86,476.83,230.77,476.83,230.74,476.83 C230.65,476.83,230.64,476.8,230.59,476.61 C230.51,476.28,230.37,475.87,230.08,475.87 C229.9,475.87,229.85,476.02,229.85,476.21 C229.85,476.33,229.91,476.58,229.95,476.76 C230,476.94,230.07,477.23,230.11,477.38 L230.25,477.91 C230.29,478.09,230.37,478.42,230.37,478.45 C230.37,478.61,230.25,478.67,230.14,478.67 C230.02,478.67,229.86,478.59,229.82,478.4 Z "
             stroke-width="0"
             fill="black"
             style="fill:#FF0000;stroke-width:0"
             id="path560" /><path
             d="M241.3,480.48 L241.33,480.48 L241.36,480.48 L241.39,480.48 L241.4,480.49 L241.42,480.49 L241.43,480.49 L241.45,480.49 L241.46,480.49 L241.47,480.49 L241.49,480.5 L241.5,480.5 L241.51,480.5 L241.53,480.51 L241.54,480.51 L241.55,480.52 L241.56,480.52 L241.57,480.53 L241.58,480.54 L241.59,480.55 L241.6,480.56 L241.61,480.57 L241.61,480.57 L241.62,480.58 L241.62,480.58 L241.62,480.59 L241.63,480.6 L241.63,480.6 L241.63,480.61 L241.63,480.62 L241.63,480.62 L241.64,480.63 L241.64,480.64 L241.64,480.65 L241.64,480.66 L241.64,480.66 L241.64,480.67 L241.64,480.68 C241.64,480.88,241.45,480.88,241.31,480.88 H235.34 C235.2,480.88,235.01,480.88,235.01,480.68 C235.01,480.48,235.2,480.48,235.35,480.48 Z "
             stroke-width="0"
             fill="black"
             style="fill:#FF0000;stroke-width:0"
             id="path562" /><path
             d="M241.31,478.56 L241.33,478.56 L241.34,478.56 L241.37,478.56 L241.39,478.56 L241.41,478.56 L241.42,478.56 L241.44,478.56 L241.45,478.56 L241.46,478.56 L241.48,478.57 L241.49,478.57 L241.5,478.57 L241.52,478.58 L241.53,478.58 L241.54,478.59 L241.55,478.59 L241.56,478.6 L241.57,478.6 L241.58,478.61 L241.59,478.62 L241.6,478.63 L241.61,478.63 L241.61,478.64 L241.61,478.65 L241.62,478.65 L241.62,478.66 L241.62,478.66 L241.63,478.67 L241.63,478.68 L241.63,478.68 L241.63,478.69 L241.63,478.7 L241.64,478.7 L241.64,478.71 L241.64,478.72 L241.64,478.73 L241.64,478.74 L241.64,478.75 L241.64,478.76 C241.64,478.95,241.45,478.95,241.3,478.95 H235.35 C235.2,478.95,235.01,478.95,235.01,478.76 C235.01,478.56,235.2,478.56,235.34,478.56 Z "
             stroke-width="0"
             fill="black"
             style="fill:#FF0000;stroke-width:0"
             id="path564" /><path
             d="M246.29,480.49 V480.73 C246.29,483.24,247.52,483.6,248.03,483.6 C248.27,483.6,248.69,483.54,248.91,483.2 C248.76,483.2,248.36,483.2,248.36,482.76 C248.36,482.45,248.6,482.3,248.82,482.3 C248.98,482.3,249.28,482.39,249.28,482.78 C249.28,483.37,248.84,483.85,248.01,483.85 C246.74,483.85,245.39,482.57,245.39,480.37 C245.39,477.72,246.54,477.02,247.47,477.02 C248.58,477.02,249.53,477.95,249.53,479.26 C249.53,480.52,248.64,481.48,247.53,481.48 L247.52,481.25 C247.68,481.25,248.14,481.25,248.45,480.63 C248.63,480.27,248.63,479.76,248.63,479.27 C248.63,478.8,248.63,478.3,248.46,477.94 C248.16,477.34,247.7,477.3,247.47,477.3 H247.47 C246.84,477.3,246.54,477.89,246.49,478.04 C246.31,478.51,246.31,479.3,246.31,479.48 C246.31,480.26,246.63,481.25,247.52,481.25 L247.53,481.48 C246.85,481.48,246.49,480.97,246.29,480.49 Z "
             stroke-width="0"
             fill="black"
             style="fill:#FF0000;stroke-width:0"
             id="path566" /><path
             d="M253.61,480.39 V480.08 C253.61,477.75,252.57,477.3,251.99,477.3 C251.83,477.3,251.29,477.31,251.02,477.65 C251.46,477.65,251.54,477.94,251.54,478.11 C251.54,478.42,251.3,478.57,251.08,478.57 C250.92,478.57,250.62,478.48,250.62,478.09 C250.62,477.42,251.16,477.02,252.01,477.02 C253.29,477.02,254.51,478.37,254.51,480.5 C254.51,483.17,253.36,483.85,252.47,483.85 C251.93,483.85,251.44,483.67,251.01,483.23 C250.6,482.78,250.37,482.36,250.37,481.62 C250.37,480.37,251.25,479.4,252.36,479.4 L252.37,479.63 C252.21,479.63,251.76,479.63,251.45,480.26 C251.27,480.62,251.27,481.12,251.27,481.61 C251.27,482.14,251.27,482.61,251.48,482.98 C251.75,483.47,252.13,483.6,252.47,483.6 C252.93,483.6,253.26,483.27,253.43,482.82 C253.55,482.5,253.59,481.87,253.59,481.42 C253.59,480.59,253.25,479.63,252.37,479.63 H252.37 L252.36,479.4 C252.97,479.4,253.38,479.82,253.61,480.39 Z "
             stroke-width="0"
             fill="black"
             style="fill:#FF0000;stroke-width:0"
             id="path568" /><path
             d="M256.71,478.38 L256.68,478.32 L256.64,478.26 L256.6,478.2 L256.57,478.15 L256.53,478.1 L256.49,478.06 L256.45,478.01 L256.42,477.97 L256.38,477.93 L256.34,477.89 L256.3,477.86 L256.27,477.83 L256.23,477.8 L256.19,477.77 L256.15,477.75 L256.12,477.72 L256.08,477.7 L256.04,477.68 L256,477.66 L255.96,477.64 L255.93,477.63 L255.89,477.62 L255.85,477.6 L255.81,477.59 L255.77,477.58 L255.73,477.57 L255.69,477.57 L255.65,477.56 L255.57,477.55 L255.49,477.54 C255.37,477.53,255.28,477.53,255.28,477.34 C255.28,477.29,255.33,477.23,255.41,477.23 C255.68,477.23,255.99,477.27,256.27,477.27 C256.6,477.27,256.94,477.23,257.26,477.23 C257.32,477.23,257.45,477.23,257.45,477.42 C257.45,477.53,257.36,477.54,257.29,477.54 C257.06,477.56,256.83,477.64,256.83,477.89 C256.83,478.01,256.89,478.12,256.96,478.26 L257.72,479.53 H260.23 L260.2,479.84 H257.91 L259.88,483.12 L260.2,479.84 L260.23,479.53 C260.24,479.32,260.39,477.97,260.39,477.87 C260.39,477.57,259.87,477.54,259.67,477.54 C259.53,477.54,259.43,477.54,259.43,477.34 C259.43,477.23,259.55,477.23,259.57,477.23 C259.98,477.23,260.4,477.27,260.81,477.27 C261.06,477.27,261.69,477.23,261.94,477.23 C262,477.23,262.12,477.23,262.12,477.43 C262.12,477.54,262.02,477.54,261.89,477.54 C261.27,477.54,261.27,477.61,261.24,477.9 L260.63,484.11 C260.61,484.31,260.61,484.35,260.45,484.35 C260.29,484.35,260.24,484.28,260.18,484.18 Z "
             stroke-width="0"
             fill="black"
             style="fill:#FF0000;stroke-width:0"
             id="path570" /></g>      </g>
      <g
         id="content"
         xml:space="preserve"
         stroke-miterlimit="10.433"
         font-style="normal"
         font-variant="normal"
         font-weight="normal"
         font-stretch="normal"
         font-size-adjust="none"
         letter-spacing="normal"
         word-spacing="normal"
         ns0:text=" $R_a = 69 \\si\\milli\\si\\ohm$"
         ns0:preamble="C:\\Program Files\\Inkscape\\share\\extensions/textextLib/CircuitSymbolsLatexPreamble.tex"
         transform="matrix(0.73964501,0,0,-0.73964501,-109.72225,494.3073)"
         style="font-style:normal;font-variant:normal;font-weight:normal;font-stretch:normal;letter-spacing:normal;word-spacing:normal;text-anchor:start;fill:none;fill-opacity:1;fill-rule:evenodd;stroke:#000000;stroke-linecap:butt;stroke-linejoin:miter;stroke-miterlimit:10.43299961;stroke-dasharray:none;stroke-dashoffset:0;stroke-opacity:1"><path
           d="m 230.95876,464.34932 0.09,0.02 0.1,0.03 0.09,0.03 0.1,0.03 0.1,0.03 0.09,0.03 0.1,0.04 0.1,0.04 0.09,0.05 0.09,0.04 0.09,0.05 0.09,0.05 0.09,0.05 0.09,0.06 0.08,0.06 0.08,0.06 0.08,0.06 0.07,0.06 0.08,0.07 0.06,0.07 0.07,0.07 0.06,0.07 0.05,0.08 0.05,0.08 0.05,0.08 0.03,0.08 0.04,0.08 0.03,0.09 0.02,0.09 0.02,0.09 0.01,0.09 v 0.09 c 0,0.85 -0.9,1.49 -2.2,1.49 h -2.84 c -0.2,0 -0.29,0 -0.29,-0.2 0,-0.11 0.09,-0.11 0.28,-0.11 0.01,0 0.21,0 0.38,-0.02 0.17,-0.02 0.26,-0.03 0.26,-0.16 0,-0.04 -0.01,-0.07 -0.04,-0.19 l -1.33,-5.33 c -0.1,-0.39 -0.12,-0.47 -0.91,-0.47 -0.18,0 -0.27,0 -0.27,-0.2 0,-0.11 0.12,-0.11 0.14,-0.11 0.28,0 0.98,0.04 1.26,0.04 0.28,0 0.98,-0.04 1.26,-0.04 0.08,0 0.2,0 0.2,0.2 0,0.11 -0.09,0.11 -0.28,0.11 -0.37,0 -0.65,0 -0.65,0.18 0,0.06 0.02,0.11 0.03,0.17 l 0.66,2.63 h 1.19 l -0.01,0.22 h -1.12 l 0.65,2.59 c 0.06,0.24 0.09,0.34 0.28,0.37 0.09,0.01 0.41,0.01 0.61,0.01 0.71,0 1.81,0 1.81,-0.98 0,-0.34 -0.16,-1.03 -0.55,-1.41 -0.25,-0.26 -0.78,-0.58 -1.68,-0.58 l 0.01,-0.22 c 0.91,0 1.09,-0.55 1.09,-0.9 0,-0.15 -0.08,-0.46 -0.14,-0.69 -0.07,-0.27 -0.16,-0.64 -0.16,-0.84 0,-1.07 1.19,-1.07 1.32,-1.07 0.85,0 1.2,1 1.2,1.14 0,0.12 -0.11,0.12 -0.12,0.12 -0.09,0 -0.11,-0.07 -0.13,-0.14 -0.25,-0.74 -0.68,-0.91 -0.91,-0.91 -0.32,0 -0.4,0.22 -0.4,0.61 0,0.31 0.06,0.82 0.11,1.13 0.01,0.14 0.03,0.33 0.03,0.47 0,0.76 -0.66,1.07 -0.93,1.17 z"
           style="fill:#000000;stroke-width:0"
           id="path519"
           inkscape:connector-curvature="0" /><path
           d="m 236.29876,462.13932 -0.02,0.02 -0.01,0.02 -0.02,0.02 -0.01,0.02 -0.02,0.02 -0.01,0.02 -0.02,0.02 -0.02,0.02 -0.02,0.02 -0.02,0.01 -0.02,0.02 -0.02,0.02 -0.02,0.01 -0.02,0.02 -0.02,0.01 -0.02,0.02 -0.02,0.01 -0.03,0.02 -0.02,0.01 -0.03,0.01 -0.02,0.01 -0.03,0.01 -0.02,0.01 -0.03,0.01 h -0.03 l -0.02,0.01 -0.03,0.01 h -0.03 -0.03 l -0.03,0.01 h -0.03 -0.03 v -0.2 c 0.49,0 0.62,-0.53 0.62,-0.6 0,-0.03 -0.01,-0.08 -0.02,-0.1 l -0.33,-1.3 c -0.05,-0.19 -0.2,-0.33 -0.36,-0.47 -0.06,-0.05 -0.34,-0.27 -0.64,-0.27 -0.26,0 -0.51,0.18 -0.51,0.67 0,0.37 0.2,1.13 0.36,1.41 0.33,0.56 0.68,0.66 0.88,0.66 v 0.2 c -0.9,0 -1.81,-0.98 -1.81,-1.98 0,-0.68 0.46,-1.16 1.06,-1.16 0.38,0 0.71,0.22 0.99,0.49 0.13,-0.42 0.54,-0.49 0.72,-0.49 0.25,0 0.43,0.15 0.55,0.37 0.16,0.27 0.25,0.67 0.25,0.69 0,0.1 -0.09,0.1 -0.11,0.1 -0.1,0 -0.11,-0.03 -0.16,-0.22 -0.08,-0.33 -0.21,-0.74 -0.51,-0.74 -0.18,0 -0.23,0.15 -0.23,0.34 0,0.12 0.06,0.37 0.11,0.55 0.05,0.18 0.12,0.47 0.15,0.62 l 0.14,0.53 c 0.04,0.18 0.13,0.51 0.13,0.54 0,0.16 -0.13,0.22 -0.24,0.22 -0.12,0 -0.28,-0.08 -0.32,-0.27 z"
           style="fill:#000000;stroke-width:0"
           id="path521"
           inkscape:connector-curvature="0" /><path
           d="m 247.77876,464.21932 h 0.03 0.03 0.03 l 0.02,0.01 h 0.01 0.02 0.01 0.01 0.02 l 0.01,0.01 h 0.01 0.02 l 0.01,0.01 h 0.01 l 0.01,0.01 h 0.02 l 0.01,0.01 0.01,0.01 0.01,0.01 v 0.01 l 0.01,0.01 h 0.01 v 0.01 0 l 0.01,0.01 v 0.01 0 0.01 l 0.01,0.01 v 0 0.01 0.01 0.01 0.01 0 0.01 0.01 c 0,0.2 -0.19,0.2 -0.32,0.2 h -5.98 c -0.14,0 -0.33,0 -0.33,-0.2 0,-0.2 0.19,-0.2 0.34,-0.2 z"
           style="fill:#000000;stroke-width:0"
           id="path523"
           inkscape:connector-curvature="0" /><path
           d="m 247.79876,462.29932 h 0.01 0.01 0.03 0.03 0.01 0.02 0.01 0.01 0.02 l 0.01,0.01 h 0.01 0.02 l 0.01,0.01 h 0.01 l 0.01,0.01 h 0.02 l 0.01,0.01 h 0.01 l 0.01,0.01 0.01,0.01 v 0.01 h 0.01 v 0.01 l 0.01,0.01 v 0 0.01 h 0.01 v 0.01 0.01 0 l 0.01,0.01 v 0.01 0 0.01 0.01 0.01 0.01 0.01 0.01 c 0,0.19 -0.19,0.19 -0.34,0.19 h -5.95 c -0.15,0 -0.34,0 -0.34,-0.19 0,-0.2 0.19,-0.2 0.33,-0.2 z"
           style="fill:#000000;stroke-width:0"
           id="path525"
           inkscape:connector-curvature="0" /><path
           d="m 252.76876,464.22932 v 0.24 c 0,2.51 1.23,2.87 1.74,2.87 0.24,0 0.66,-0.06 0.88,-0.4 -0.15,0 -0.55,0 -0.55,-0.44 0,-0.31 0.24,-0.46 0.46,-0.46 0.16,0 0.46,0.09 0.46,0.48 0,0.59 -0.44,1.07 -1.27,1.07 -1.27,0 -2.62,-1.28 -2.62,-3.48 0,-2.65 1.16,-3.35 2.09,-3.35 1.1,0 2.05,0.93 2.05,2.24 0,1.26 -0.89,2.22 -2,2.22 l -0.01,-0.23 c 0.17,0 0.62,0 0.93,-0.62 0.18,-0.36 0.18,-0.87 0.18,-1.36 0,-0.47 0,-0.97 -0.17,-1.33 -0.3,-0.6 -0.75,-0.64 -0.98,-0.64 v 0 c -0.63,0 -0.93,0.59 -0.99,0.74 -0.18,0.47 -0.18,1.26 -0.18,1.44 0,0.78 0.32,1.77 1.21,1.77 l 0.01,0.23 c -0.67,0 -1.04,-0.51 -1.24,-0.99 z"
           style="fill:#000000;stroke-width:0"
           id="path527"
           inkscape:connector-curvature="0" /><path
           d="m 260.08876,464.12932 v -0.31 c 0,-2.33 -1.03,-2.78 -1.61,-2.78 -0.17,0 -0.71,0.01 -0.98,0.35 0.44,0 0.52,0.29 0.52,0.46 0,0.31 -0.24,0.46 -0.46,0.46 -0.16,0 -0.46,-0.09 -0.46,-0.48 0,-0.67 0.54,-1.07 1.39,-1.07 1.28,0 2.5,1.35 2.5,3.48 0,2.67 -1.15,3.35 -2.03,3.35 -0.55,0 -1.04,-0.18 -1.47,-0.62 -0.41,-0.45 -0.64,-0.87 -0.64,-1.61 0,-1.25 0.88,-2.22 2,-2.22 l 0.01,0.23 c -0.16,0 -0.62,0 -0.93,0.63 -0.18,0.36 -0.18,0.86 -0.18,1.35 0,0.53 0,1 0.21,1.37 0.27,0.49 0.65,0.62 1,0.62 0.46,0 0.78,-0.33 0.95,-0.78 0.12,-0.32 0.16,-0.95 0.16,-1.4 0,-0.83 -0.33,-1.79 -1.21,-1.79 v 0 l -0.01,-0.23 c 0.61,0 1.01,0.42 1.24,0.99 z"
           style="fill:#000000;stroke-width:0"
           id="path529"
           inkscape:connector-curvature="0" /><path
           d="m 262.50876,464.38932 v -2.66 c 0,-0.45 -0.11,-0.45 -0.78,-0.45 v -0.31 c 0.35,0.01 0.86,0.04 1.13,0.04 0.26,0 0.78,-0.03 1.12,-0.04 v 0.31 c -0.67,0 -0.78,0 -0.78,0.45 v 1.83 c 0,1.03 0.71,1.59 1.35,1.59 0.63,0 0.73,-0.54 0.73,-1.11 v -2.31 c 0,-0.45 -0.1,-0.45 -0.77,-0.45 v -0.31 c 0.35,0.01 0.85,0.04 1.12,0.04 0.26,0 0.78,-0.03 1.12,-0.04 v 0.31 c -0.67,0 -0.78,0 -0.78,0.45 v 1.83 c 0,1.03 0.71,1.59 1.35,1.59 0.63,0 0.74,-0.54 0.74,-1.11 v -2.31 c 0,-0.45 -0.11,-0.45 -0.78,-0.45 v -0.31 c 0.35,0.01 0.86,0.04 1.13,0.04 0.26,0 0.77,-0.03 1.11,-0.04 v 0.31 c -0.52,0 -0.77,0 -0.78,0.3 v 1.9 c 0,0.85 0,1.16 -0.31,1.52 -0.13,0.17 -0.46,0.37 -1.04,0.37 -0.84,0 -1.28,-0.6 -1.45,-0.98 -0.14,0.87 -0.88,0.98 -1.32,0.98 -0.73,0 -1.2,-0.43 -1.48,-1.05 v 1.05 l -1.41,-0.11 v -0.31 c 0.7,0 0.78,-0.07 0.78,-0.56 z"
           style="fill:#000000;stroke-width:0"
           id="path531"
           inkscape:connector-curvature="0" /><path
           d="m 276.46876,462.57932 h -0.25 c -0.05,-0.25 -0.09,-0.48 -0.18,-0.72 -0.05,-0.16 -0.08,-0.24 -0.66,-0.24 h -0.8 c 0.13,0.56 0.44,1.03 0.89,1.69 0.47,0.7 0.88,1.39 0.88,2.17 0,1.39 -1.35,2.5 -3.03,2.5 -1.72,0 -3.05,-1.13 -3.05,-2.5 0,-0.78 0.41,-1.47 0.88,-2.17 0.44,-0.66 0.76,-1.13 0.89,-1.69 h -0.8 c -0.58,0 -0.61,0.08 -0.66,0.23 -0.08,0.23 -0.12,0.49 -0.18,0.73 h -0.24 l 0.33,-1.61 h 1.59 c 0.22,0 0.25,0 0.25,0.21 0,0.7 -0.31,1.57 -0.54,2.21 -0.21,0.58 -0.49,1.36 -0.49,2.11 0,1.58 1.1,2.26 2.01,2.26 0.95,0 2.01,-0.72 2.01,-2.26 0,-0.75 -0.27,-1.5 -0.56,-2.32 -0.15,-0.42 -0.47,-1.31 -0.47,-2 0,-0.21 0.03,-0.21 0.26,-0.21 h 1.59 z"
           style="fill:#000000;stroke-width:0"
           id="path533"
           inkscape:connector-curvature="0" /></g>    </g>
    <g
       id="g715"
       inkscape:label="GND"
       transform="translate(33.397947,90.06983)">
      <g
         id="g713"
         inkscape:label="GND"
         transform="translate(-12.561668,-1.8708867)">
        <path
           id="path705"
           inkscape:label="none"
           style="fill:none;stroke:#000000;stroke-width:1;stroke-linecap:round;stroke-linejoin:round;stroke-dasharray:none"
           d="m 70,140 v 10"
           inkscape:connector-curvature="0" />
        <path
           id="path707"
           inkscape:label="none"
           style="fill:none;stroke:#000000;stroke-width:1;stroke-linecap:round;stroke-linejoin:round;stroke-dasharray:none"
           d="M 77,150 H 63"
           inkscape:connector-curvature="0" />
        <path
           id="path709"
           inkscape:label="none"
           style="fill:none;stroke:#000000;stroke-width:1;stroke-linecap:round;stroke-linejoin:round;stroke-dasharray:none"
           d="m 73.5,152 h -7"
           inkscape:connector-curvature="0" />
        <path
           id="path711"
           inkscape:label="none"
           style="fill:none;stroke:#000000;stroke-width:1;stroke-linecap:round;stroke-linejoin:round;stroke-dasharray:none"
           d="M 71,154 H 69"
           inkscape:connector-curvature="0" />
      </g>
    </g>
    <g
       transform="rotate(90,70,170)"
       inkscape:label="Source"
       id="g837">
      <g
         transform="rotate(-180,94.999992,190)"
         inkscape:label="Source"
         id="g829">
        <path
           inkscape:connector-curvature="0"
           d="M 60.645567,190 88,190"
           style="fill:none;stroke:#000000;stroke-width:1;stroke-linecap:round;stroke-linejoin:round;stroke-dasharray:none"
           inkscape:label="none"
           id="path817"
           sodipodi:nodetypes="cc" />
        <path
           inkscape:connector-curvature="0"
           d="M 120,190 H 102"
           style="fill:none;stroke:#000000;stroke-width:1;stroke-linecap:round;stroke-linejoin:round;stroke-dasharray:none"
           inkscape:label="none"
           id="path819" />
        <circle
           r="7"
           cy="190"
           cx="95"
           style="fill:none;stroke:#000000;stroke-width:1;stroke-linecap:round;stroke-linejoin:round;stroke-dasharray:none"
           inkscape:label="circle"
           id="path821" />
        <path
           inkscape:connector-curvature="0"
           d="M 100,190 H 98"
           style="fill:none;stroke:#000000;stroke-width:0.60000002;stroke-linecap:round;stroke-linejoin:round;stroke-dasharray:none"
           inkscape:label="none"
           id="path823" />
        <path
           inkscape:connector-curvature="0"
           d="m 99,189 v 2"
           style="fill:none;stroke:#000000;stroke-width:0.60000002;stroke-linecap:round;stroke-linejoin:round;stroke-dasharray:none"
           inkscape:label="none"
           id="path825" />
        <path
           inkscape:connector-curvature="0"
           d="m 91,189 v 2"
           style="fill:none;stroke:#000000;stroke-width:0.60000002;stroke-linecap:round;stroke-linejoin:round;stroke-dasharray:none"
           inkscape:label="none"
           id="path827" />
      </g>
      <g
         style="font-style:normal;font-variant:normal;font-weight:normal;font-stretch:normal;letter-spacing:normal;word-spacing:normal;text-anchor:start;fill:none;fill-opacity:1;fill-rule:evenodd;stroke:#000000;stroke-linecap:butt;stroke-linejoin:miter;stroke-miterlimit:10.43299961;stroke-dasharray:none;stroke-dashoffset:0;stroke-opacity:1"
         id="g835"
         xml:space="preserve"
         stroke-miterlimit="10.433"
         font-style="normal"
         font-variant="normal"
         font-weight="normal"
         font-stretch="normal"
         font-size-adjust="none"
         letter-spacing="normal"
         word-spacing="normal"
         ns0:text=" $E\\si\\volt$"
         ns0:preamble="C:\\Program Files\\Inkscape\\share\\extensions/textextLib/CircuitSymbolsLatexPreamble.tex"
         transform="matrix(0.739645,0,0,-0.739645,-75.489876,559.02088)"><path
           inkscape:connector-curvature="0"
           d="m 233.93652,479.43539 0.02,-0.03 0.01,-0.03 0.02,-0.04 0.01,-0.03 0.02,-0.03 0.02,-0.03 0.02,-0.03 0.02,-0.03 0.02,-0.03 0.02,-0.03 0.03,-0.03 0.02,-0.03 0.03,-0.02 0.02,-0.03 0.03,-0.02 0.04,-0.02 0.03,-0.03 0.03,-0.02 0.04,-0.02 0.04,-0.01 0.04,-0.02 0.04,-0.02 0.04,-0.01 0.04,-0.02 0.05,-0.01 0.05,-0.01 0.05,-0.01 0.06,-0.01 h 0.05 l 0.06,-0.01 h 0.06 0.06 v -0.31 c -0.31,0.02 -0.71,0.03 -0.97,0.03 -0.3,0 -0.87,-0.02 -1.13,-0.03 v 0.31 c 0.51,0.01 0.72,0.27 0.72,0.5 0,0.07 -0.02,0.13 -0.05,0.19 l -1.82,4.79 -1.9,-5.01 c -0.06,-0.14 -0.06,-0.16 -0.06,-0.18 0,-0.29 0.56,-0.29 0.81,-0.29 v -0.31 c -0.36,0.03 -1.04,0.03 -1.42,0.03 -0.48,0 -0.91,-0.02 -1.27,-0.03 v 0.31 c 0.65,0 0.84,0 0.98,0.38 l 2.31,6.1 c 0.07,0.18 0.12,0.21 0.25,0.21 0.17,0 0.19,-0.05 0.24,-0.18 z"
           style="fill:#000000;stroke-width:0"
           id="path833" /></g>    </g>
    <g
       transform="translate(-3.28462,-6.38804)"
       inkscape:label="OpAmp"
       id="g252">
      <g
         inkscape:label="OpAmp"
         id="g178">
        <path
           inkscape:connector-curvature="0"
           d="m 145,210 -35,20 v -40 l 35,20"
           style="fill:none;stroke:#000000;stroke-width:1;stroke-linecap:round;stroke-linejoin:round;stroke-dasharray:none"
           inkscape:label="none"
           id="path132" />
        <path
           inkscape:connector-curvature="0"
           d="m 110,220 -56.677593,0"
           style="fill:none;stroke:#000000;stroke-width:1;stroke-linecap:round;stroke-linejoin:round;stroke-dasharray:none"
           inkscape:label="none"
           id="path134"
           sodipodi:nodetypes="cc" />
        <path
           inkscape:connector-curvature="0"
           d="m 110,200 -34.226953,0"
           style="fill:none;stroke:#000000;stroke-width:1;stroke-linecap:round;stroke-linejoin:round;stroke-dasharray:none"
           inkscape:label="none"
           id="path136"
           sodipodi:nodetypes="cc" />
        <path
           inkscape:connector-curvature="0"
           d="m 145,210 h 7.5"
           style="fill:none;stroke:#000000;stroke-width:1;stroke-linecap:round;stroke-linejoin:round;stroke-dasharray:none"
           inkscape:label="none"
           id="path138" />
        <path
           inkscape:connector-curvature="0"
           d="m 127.5,200 0,-23.4416"
           style="fill:none;stroke:#000000;stroke-width:1;stroke-linecap:round;stroke-linejoin:round;stroke-dasharray:none"
           inkscape:label="none"
           id="path140"
           sodipodi:nodetypes="cc" />
        <path
           inkscape:connector-curvature="0"
           d="m 127.5,220 v 5"
           style="fill:none;stroke:#000000;stroke-width:1;stroke-linecap:round;stroke-linejoin:round;stroke-dasharray:none"
           inkscape:label="none"
           id="path142" />
        <g
           inkscape:label="GND"
           transform="rotate(-180,127.5,235)"
           id="g170">
          <g
             inkscape:label="GND"
             id="g162">
            <circle
               r="1"
               cy="235"
               cx="127.5"
               style="fill:#000000;stroke:#000000;stroke-width:0.69999999;stroke-linecap:round;stroke-linejoin:round;stroke-dasharray:none"
               inkscape:label="circle"
               id="path158" />
            <path
               inkscape:connector-curvature="0"
               d="m 127.5,235 v 10"
               style="fill:none;stroke:#000000;stroke-width:1;stroke-linecap:round;stroke-linejoin:round;stroke-dasharray:none"
               inkscape:label="none"
               id="path160" />
          </g>
          <g
             style="font-style:normal;font-variant:normal;font-weight:normal;font-stretch:normal;letter-spacing:normal;word-spacing:normal;text-anchor:start;fill:none;fill-opacity:1;fill-rule:evenodd;stroke:#000000;stroke-linecap:butt;stroke-linejoin:miter;stroke-miterlimit:10.43299961;stroke-dasharray:none;stroke-dashoffset:0;stroke-opacity:1"
             id="g168"
             xml:space="preserve"
             stroke-miterlimit="10.433"
             font-style="normal"
             font-variant="normal"
             font-weight="normal"
             font-stretch="normal"
             font-size-adjust="none"
             letter-spacing="normal"
             word-spacing="normal"
             ns0:text=" $-5$"
             ns0:preamble="C:\\Program Files\\Inkscape\\share\\extensions/textextLib/CircuitSymbolsLatexPreamble.tex"
             transform="matrix(-0.739645,0,0,0.739645,297.58876,-126.21057)"><path
               inkscape:connector-curvature="0"
               d="m 230,479.52 h 0.04 0.03 0.03 0.01 0.02 0.01 l 0.02,0.01 h 0.01 0.02 0.01 l 0.02,0.01 h 0.01 0.01 l 0.01,0.01 0.02,0.01 h 0.01 l 0.01,0.01 0.01,0.01 h 0.01 v 0.01 l 0.01,0.01 0.01,0.01 v 0 0.01 l 0.01,0.01 v 0 0.01 0.01 0 l 0.01,0.01 v 0.01 0.01 0 0.01 0.01 0.01 0.01 c 0,0.2 -0.18,0.2 -0.35,0.2 h -5.39 c -0.17,0 -0.35,0 -0.35,-0.2 0,-0.2 0.18,-0.2 0.35,-0.2 z"
               style="fill:#000000;stroke-width:0"
               id="path164" /><path
               inkscape:connector-curvature="0"
               d="m 235.66,479.23 v 0.11 l -0.01,0.11 -0.01,0.11 -0.02,0.1 -0.02,0.11 -0.02,0.1 -0.03,0.1 -0.04,0.1 -0.03,0.1 -0.04,0.09 -0.05,0.09 -0.05,0.09 -0.05,0.09 -0.05,0.08 -0.06,0.08 -0.06,0.07 -0.07,0.08 -0.07,0.06 -0.07,0.07 -0.07,0.06 -0.08,0.06 -0.08,0.05 -0.08,0.05 -0.09,0.04 -0.08,0.04 -0.09,0.04 -0.09,0.03 -0.1,0.02 -0.09,0.02 -0.1,0.02 h -0.1 l -0.1,0.01 c -0.47,0 -0.9,-0.16 -1.26,-0.51 v 1.94 c 0.2,-0.06 0.53,-0.13 0.85,-0.13 1.22,0 1.92,0.9 1.92,1.03 0,0.06 -0.03,0.11 -0.1,0.11 -0.01,0 -0.03,0 -0.08,-0.03 -0.2,-0.09 -0.69,-0.29 -1.36,-0.29 -0.39,0 -0.85,0.07 -1.32,0.28 -0.08,0.03 -0.1,0.03 -0.12,0.03 -0.1,0 -0.1,-0.08 -0.1,-0.24 v -2.94 c 0,-0.18 0,-0.26 0.14,-0.26 0.07,0 0.09,0.03 0.13,0.09 0.11,0.16 0.48,0.7 1.28,0.7 0.52,0 0.77,-0.46 0.85,-0.64 0.16,-0.37 0.18,-0.75 0.18,-1.25 0,-0.35 0,-0.94 -0.24,-1.36 -0.24,-0.39 -0.61,-0.64 -1.07,-0.64 -0.72,0 -1.29,0.52 -1.46,1.11 0.03,-0.01 0.06,-0.02 0.17,-0.02 0.33,0 0.5,0.25 0.5,0.48 0,0.24 -0.17,0.49 -0.5,0.49 -0.14,0 -0.49,-0.07 -0.49,-0.53 0,-0.85 0.69,-1.81 1.81,-1.81 1.15,0 2.17,0.95 2.17,2.21 z"
               style="fill:#000000;stroke-width:0"
               id="path166" /></g>        </g>
        <path
           inkscape:connector-curvature="0"
           d="m 116,220 h -3"
           style="fill:none;stroke:#000000;stroke-width:0.69999999;stroke-linecap:round;stroke-linejoin:round;stroke-dasharray:none"
           inkscape:label="none"
           id="path172" />
        <path
           inkscape:connector-curvature="0"
           d="m 116,200 h -3"
           style="fill:none;stroke:#000000;stroke-width:0.69999999;stroke-linecap:round;stroke-linejoin:round;stroke-dasharray:none"
           inkscape:label="none"
           id="path174" />
        <path
           inkscape:connector-curvature="0"
           d="m 114.5,198.5 v 3"
           style="fill:none;stroke:#000000;stroke-width:0.69999999;stroke-linecap:round;stroke-linejoin:round;stroke-dasharray:none"
           inkscape:label="none"
           id="path176" />
      </g>
      <g
         style="font-style:normal;font-variant:normal;font-weight:normal;font-stretch:normal;letter-spacing:normal;word-spacing:normal;text-anchor:start;fill:none;fill-opacity:1;fill-rule:evenodd;stroke:#000000;stroke-linecap:butt;stroke-linejoin:miter;stroke-miterlimit:10.43299961;stroke-dasharray:none;stroke-dashoffset:0;stroke-opacity:1"
         id="g184"
         xml:space="preserve"
         stroke-miterlimit="10.433"
         font-style="normal"
         font-variant="normal"
         font-weight="normal"
         font-stretch="normal"
         font-size-adjust="none"
         letter-spacing="normal"
         word-spacing="normal"
         ns0:text=" $v^+$"
         ns0:preamble="C:\\Program Files\\Inkscape\\share\\extensions/textextLib/CircuitSymbolsLatexPreamble.tex"
         transform="matrix(0.591716,0,0,-0.591716,-29.609473,480.32545)"><path
           inkscape:connector-curvature="0"
           d="m 228.1,480.93 v 0.02 0.03 0.02 0.03 l -0.01,0.02 v 0.02 0.02 0.02 l -0.01,0.04 -0.01,0.04 v 0.04 l -0.01,0.04 -0.01,0.03 -0.02,0.03 -0.01,0.03 -0.01,0.03 -0.02,0.02 -0.01,0.03 -0.02,0.02 -0.01,0.02 -0.02,0.02 -0.02,0.02 -0.01,0.01 -0.02,0.02 -0.02,0.01 -0.02,0.01 -0.02,0.01 -0.02,0.01 -0.01,0.01 -0.02,0.01 h -0.02 l -0.02,0.01 h -0.02 -0.02 l -0.01,0.01 h -0.02 c -0.25,0 -0.49,-0.26 -0.49,-0.48 0,-0.13 0.05,-0.19 0.16,-0.3 0.21,-0.2 0.34,-0.46 0.34,-0.81 0,-0.42 -0.61,-2.7 -1.77,-2.7 -0.51,0 -0.74,0.35 -0.74,0.87 0,0.56 0.27,1.28 0.58,2.1 0.06,0.17 0.11,0.31 0.11,0.5 0,0.45 -0.31,0.82 -0.81,0.82 -0.94,0 -1.32,-1.45 -1.32,-1.53 0,-0.1 0.1,-0.1 0.12,-0.1 0.1,0 0.11,0.02 0.16,0.17 0.29,1.01 0.72,1.24 1.01,1.24 0.08,0 0.25,0 0.25,-0.32 0,-0.25 -0.1,-0.52 -0.17,-0.7 -0.44,-1.15 -0.57,-1.6 -0.57,-2.03 0,-1.07 0.88,-1.23 1.33,-1.23 1.68,0 2.25,3.28 2.25,3.8 z"
           style="fill:#217b21;stroke-width:0"
           id="path180" /><path
           inkscape:connector-curvature="0"
           d="M 231.86,482.42 H 234 c 0.09,0 0.25,0 0.25,0.17 0,0.17 -0.16,0.17 -0.25,0.17 h -2.14 v 2.14 c 0,0.09 0,0.25 -0.17,0.25 -0.18,0 -0.18,-0.16 -0.18,-0.25 v -2.14 h -2.14 c -0.09,0 -0.26,0 -0.26,-0.16 0,-0.18 0.16,-0.18 0.26,-0.18 h 2.14 v -2.13 c 0,-0.09 0,-0.26 0.17,-0.26 0.18,0 0.18,0.16 0.18,0.26 z"
           style="fill:#217b21;stroke-width:0"
           id="path182" /></g>      <g
         style="font-style:normal;font-variant:normal;font-weight:normal;font-stretch:normal;letter-spacing:normal;word-spacing:normal;text-anchor:start;fill:none;fill-opacity:1;fill-rule:evenodd;stroke:#000000;stroke-linecap:butt;stroke-linejoin:miter;stroke-miterlimit:10.43299961;stroke-dasharray:none;stroke-dashoffset:0;stroke-opacity:1"
         id="g190"
         xml:space="preserve"
         stroke-miterlimit="10.433"
         font-style="normal"
         font-variant="normal"
         font-weight="normal"
         font-stretch="normal"
         font-size-adjust="none"
         letter-spacing="normal"
         word-spacing="normal"
         ns0:text=" $v^-$"
         ns0:preamble="C:\\Program Files\\Inkscape\\share\\extensions/textextLib/CircuitSymbolsLatexPreamble.tex"
         transform="matrix(0.591716,0,0,-0.591716,-29.520716,500.32545)"><path
           inkscape:connector-curvature="0"
           d="m 228.1,480.93 v 0.02 0.03 0.02 0.03 l -0.01,0.02 v 0.02 0.02 0.02 l -0.01,0.04 -0.01,0.04 v 0.04 l -0.01,0.04 -0.01,0.03 -0.02,0.03 -0.01,0.03 -0.01,0.03 -0.02,0.02 -0.01,0.03 -0.02,0.02 -0.01,0.02 -0.02,0.02 -0.02,0.02 -0.01,0.01 -0.02,0.02 -0.02,0.01 -0.02,0.01 -0.02,0.01 -0.02,0.01 -0.01,0.01 -0.02,0.01 h -0.02 l -0.02,0.01 h -0.02 -0.02 l -0.01,0.01 h -0.02 c -0.25,0 -0.49,-0.26 -0.49,-0.48 0,-0.13 0.05,-0.19 0.16,-0.3 0.21,-0.2 0.34,-0.46 0.34,-0.81 0,-0.42 -0.61,-2.7 -1.77,-2.7 -0.51,0 -0.74,0.35 -0.74,0.87 0,0.56 0.27,1.28 0.58,2.1 0.06,0.17 0.11,0.31 0.11,0.5 0,0.45 -0.31,0.82 -0.81,0.82 -0.94,0 -1.32,-1.45 -1.32,-1.53 0,-0.1 0.1,-0.1 0.12,-0.1 0.1,0 0.11,0.02 0.16,0.17 0.29,1.01 0.72,1.24 1.01,1.24 0.08,0 0.25,0 0.25,-0.32 0,-0.25 -0.1,-0.52 -0.17,-0.7 -0.44,-1.15 -0.57,-1.6 -0.57,-2.03 0,-1.07 0.88,-1.23 1.33,-1.23 1.68,0 2.25,3.28 2.25,3.8 z"
           style="fill:#217b21;stroke-width:0"
           id="path186" /><path
           inkscape:connector-curvature="0"
           d="m 233.82,482.42 h 0.01 0.01 0.01 0.02 0.02 0.01 0.01 l 0.01,0.01 h 0.02 0.01 0.01 0.01 l 0.01,0.01 h 0.01 0.01 l 0.01,0.01 h 0.01 l 0.01,0.01 h 0.01 l 0.01,0.01 0.01,0.01 h 0.01 v 0.01 0 l 0.01,0.01 v 0 0.01 0 l 0.01,0.01 v 0 0.01 0 l 0.01,0.01 v 0.01 0 0.01 0.01 0 0.01 0.01 c 0,0.17 -0.16,0.17 -0.28,0.17 h -4.17 c -0.11,0 -0.28,0 -0.28,-0.16 0,-0.18 0.17,-0.18 0.28,-0.18 z"
           style="fill:#217b21;stroke-width:0"
           id="path188" /></g>      <g
         inkscape:label="name"
         transform="rotate(-180,102.5,203)"
         id="g202">
        <path
           inkscape:connector-curvature="0"
           d="m 107.5,203 h -10"
           style="fill:none;stroke:#ff0000;stroke-width:1;stroke-linecap:round;stroke-linejoin:round;stroke-dasharray:none;marker-end:url(#arrowCurrentEnd)"
           inkscape:label="none"
           id="path192" />
        <g
           style="font-style:normal;font-variant:normal;font-weight:normal;font-stretch:normal;letter-spacing:normal;word-spacing:normal;text-anchor:start;fill:none;fill-opacity:1;fill-rule:evenodd;stroke:#000000;stroke-linecap:butt;stroke-linejoin:miter;stroke-miterlimit:10.43299961;stroke-dasharray:none;stroke-dashoffset:0;stroke-opacity:1"
           id="g200"
           xml:space="preserve"
           stroke-miterlimit="10.433"
           font-style="normal"
           font-variant="normal"
           font-weight="normal"
           font-stretch="normal"
           font-size-adjust="none"
           letter-spacing="normal"
           word-spacing="normal"
           ns0:text=" $i^+$"
           ns0:preamble="C:\\Program Files\\Inkscape\\share\\extensions/textextLib/CircuitSymbolsLatexPreamble.tex"
           transform="matrix(-0.739645,0,0,0.739645,271.22042,-158.50544)"><path
             inkscape:connector-curvature="0"
             d="m 226.26,483.44 v 0.02 0.02 0.02 0.02 l -0.01,0.01 v 0.02 l -0.01,0.02 v 0.01 l -0.01,0.02 -0.01,0.01 v 0.02 l -0.01,0.01 -0.01,0.02 -0.01,0.01 -0.01,0.01 -0.01,0.02 -0.02,0.01 -0.01,0.01 -0.01,0.01 -0.02,0.01 -0.01,0.01 -0.02,0.01 -0.01,0.01 h -0.02 l -0.02,0.01 -0.02,0.01 H 226 225.98 l -0.02,0.01 h -0.02 -0.02 -0.02 c -0.27,0 -0.54,-0.26 -0.54,-0.53 0,-0.18 0.14,-0.35 0.38,-0.35 0.22,0 0.52,0.23 0.52,0.52 z"
             style="fill:#ff0000;stroke-width:0"
             id="path194" /><path
             inkscape:connector-curvature="0"
             d="m 225.51,479.71 0.01,0.02 0.01,0.03 0.01,0.02 0.01,0.02 v 0.03 l 0.01,0.02 0.01,0.01 0.01,0.02 v 0.02 l 0.01,0.02 0.01,0.01 v 0.02 l 0.01,0.01 v 0.02 l 0.01,0.02 0.01,0.03 0.01,0.03 0.01,0.02 v 0.01 l 0.01,0.02 0.01,0.01 v 0.02 l 0.01,0.02 0.01,0.02 v 0.01 l 0.01,0.03 0.01,0.02 0.01,0.02 0.01,0.03 c 0.07,0.19 0.12,0.33 0.12,0.52 0,0.45 -0.31,0.82 -0.81,0.82 -0.94,0 -1.32,-1.45 -1.32,-1.53 0,-0.1 0.1,-0.1 0.12,-0.1 0.1,0 0.11,0.02 0.16,0.17 0.27,0.94 0.67,1.24 1.01,1.24 0.08,0 0.25,0 0.25,-0.32 0,-0.21 -0.07,-0.42 -0.11,-0.52 -0.08,-0.26 -0.53,-1.41 -0.69,-1.84 -0.1,-0.25 -0.23,-0.58 -0.23,-0.79 0,-0.47 0.34,-0.81 0.82,-0.81 0.94,0 1.3,1.44 1.3,1.53 0,0.1 -0.09,0.1 -0.12,0.1 -0.1,0 -0.1,-0.03 -0.14,-0.18 -0.19,-0.63 -0.51,-1.24 -1.02,-1.24 -0.17,0 -0.24,0.1 -0.24,0.33 0,0.25 0.06,0.39 0.29,1 z"
             style="fill:#ff0000;stroke-width:0"
             id="path196" /><path
             inkscape:connector-curvature="0"
             d="m 230.1,482.42 h 2.14 c 0.09,0 0.26,0 0.26,0.17 0,0.17 -0.16,0.17 -0.26,0.17 h -2.14 v 2.14 c 0,0.09 0,0.25 -0.17,0.25 -0.17,0 -0.17,-0.16 -0.17,-0.25 v -2.14 h -2.15 c -0.09,0 -0.26,0 -0.26,-0.16 0,-0.18 0.16,-0.18 0.26,-0.18 h 2.15 v -2.13 c 0,-0.09 0,-0.26 0.17,-0.26 0.17,0 0.17,0.16 0.17,0.26 z"
             style="fill:#ff0000;stroke-width:0"
             id="path198" /></g>      </g>
      <g
         inkscape:label="name"
         transform="rotate(-180,102.5,223)"
         id="g214">
        <path
           inkscape:connector-curvature="0"
           d="m 107.5,223 h -10"
           style="fill:none;stroke:#ff0000;stroke-width:1;stroke-linecap:round;stroke-linejoin:round;stroke-dasharray:none;marker-end:url(#arrowCurrentEnd)"
           inkscape:label="none"
           id="path204" />
        <g
           style="font-style:normal;font-variant:normal;font-weight:normal;font-stretch:normal;letter-spacing:normal;word-spacing:normal;text-anchor:start;fill:none;fill-opacity:1;fill-rule:evenodd;stroke:#000000;stroke-linecap:butt;stroke-linejoin:miter;stroke-miterlimit:10.43299961;stroke-dasharray:none;stroke-dashoffset:0;stroke-opacity:1"
           id="g212"
           xml:space="preserve"
           stroke-miterlimit="10.433"
           font-style="normal"
           font-variant="normal"
           font-weight="normal"
           font-stretch="normal"
           font-size-adjust="none"
           letter-spacing="normal"
           word-spacing="normal"
           ns0:text=" $i^-$"
           ns0:preamble="C:\\Program Files\\Inkscape\\share\\extensions/textextLib/CircuitSymbolsLatexPreamble.tex"
           transform="matrix(-0.739645,0,0,0.739645,271.16495,-137.50692)"><path
             inkscape:connector-curvature="0"
             d="m 226.26,483.44 v 0.02 0.02 0.02 0.02 l -0.01,0.01 v 0.02 l -0.01,0.02 v 0.01 l -0.01,0.02 -0.01,0.01 v 0.02 l -0.01,0.01 -0.01,0.02 -0.01,0.01 -0.01,0.01 -0.01,0.02 -0.02,0.01 -0.01,0.01 -0.01,0.01 -0.02,0.01 -0.01,0.01 -0.02,0.01 -0.01,0.01 h -0.02 l -0.02,0.01 -0.02,0.01 H 226 225.98 l -0.02,0.01 h -0.02 -0.02 -0.02 c -0.27,0 -0.54,-0.26 -0.54,-0.53 0,-0.18 0.14,-0.35 0.38,-0.35 0.22,0 0.52,0.23 0.52,0.52 z"
             style="fill:#ff0000;stroke-width:0"
             id="path206" /><path
             inkscape:connector-curvature="0"
             d="m 225.51,479.71 0.01,0.02 0.01,0.03 0.01,0.02 0.01,0.02 v 0.03 l 0.01,0.02 0.01,0.01 0.01,0.02 v 0.02 l 0.01,0.02 0.01,0.01 v 0.02 l 0.01,0.01 v 0.02 l 0.01,0.02 0.01,0.03 0.01,0.03 0.01,0.02 v 0.01 l 0.01,0.02 0.01,0.01 v 0.02 l 0.01,0.02 0.01,0.02 v 0.01 l 0.01,0.03 0.01,0.02 0.01,0.02 0.01,0.03 c 0.07,0.19 0.12,0.33 0.12,0.52 0,0.45 -0.31,0.82 -0.81,0.82 -0.94,0 -1.32,-1.45 -1.32,-1.53 0,-0.1 0.1,-0.1 0.12,-0.1 0.1,0 0.11,0.02 0.16,0.17 0.27,0.94 0.67,1.24 1.01,1.24 0.08,0 0.25,0 0.25,-0.32 0,-0.21 -0.07,-0.42 -0.11,-0.52 -0.08,-0.26 -0.53,-1.41 -0.69,-1.84 -0.1,-0.25 -0.23,-0.58 -0.23,-0.79 0,-0.47 0.34,-0.81 0.82,-0.81 0.94,0 1.3,1.44 1.3,1.53 0,0.1 -0.09,0.1 -0.12,0.1 -0.1,0 -0.1,-0.03 -0.14,-0.18 -0.19,-0.63 -0.51,-1.24 -1.02,-1.24 -0.17,0 -0.24,0.1 -0.24,0.33 0,0.25 0.06,0.39 0.29,1 z"
             style="fill:#ff0000;stroke-width:0"
             id="path208" /><path
             inkscape:connector-curvature="0"
             d="m 232.07,482.42 h 0.01 0.01 0.01 0.01 0.02 0.02 0.01 l 0.01,0.01 h 0.01 0.01 0.01 0.02 l 0.01,0.01 h 0.01 0.01 l 0.01,0.01 h 0.01 l 0.01,0.01 h 0.01 l 0.01,0.01 v 0.01 h 0.01 v 0.01 h 0.01 v 0.01 0 l 0.01,0.01 v 0 0.01 0 l 0.01,0.01 v 0 0.01 0.01 0 0.01 0.01 h 0.01 v 0.01 0.01 c 0,0.17 -0.17,0.17 -0.28,0.17 h -4.17 c -0.11,0 -0.28,0 -0.28,-0.16 0,-0.18 0.16,-0.18 0.28,-0.18 z"
             style="fill:#ff0000;stroke-width:0"
             id="path210" /></g>      </g>
      <g
         style="font-style:normal;font-variant:normal;font-weight:normal;font-stretch:normal;letter-spacing:normal;word-spacing:normal;text-anchor:start;fill:none;fill-opacity:1;fill-rule:evenodd;stroke:#000000;stroke-linecap:butt;stroke-linejoin:miter;stroke-miterlimit:10.43299961;stroke-dasharray:none;stroke-dashoffset:0;stroke-opacity:1"
         id="g224"
         xml:space="preserve"
         stroke-miterlimit="10.433"
         font-style="normal"
         font-variant="normal"
         font-weight="normal"
         font-stretch="normal"
         font-size-adjust="none"
         letter-spacing="normal"
         word-spacing="normal"
         ns0:text=" $v_{out}$"
         ns0:preamble="C:\\Program Files\\Inkscape\\share\\extensions/textextLib/CircuitSymbolsLatexPreamble.tex"
         transform="matrix(0.739645,0,0,-0.739645,-20.473379,559.82694)"><path
           inkscape:connector-curvature="0"
           d="m 228.1,480.93 v 0.02 0.03 0.02 0.03 l -0.01,0.02 v 0.02 0.02 0.02 l -0.01,0.04 -0.01,0.04 v 0.04 l -0.01,0.04 -0.01,0.03 -0.02,0.03 -0.01,0.03 -0.01,0.03 -0.02,0.02 -0.01,0.03 -0.02,0.02 -0.01,0.02 -0.02,0.02 -0.02,0.02 -0.01,0.01 -0.02,0.02 -0.02,0.01 -0.02,0.01 -0.02,0.01 -0.02,0.01 -0.01,0.01 -0.02,0.01 h -0.02 l -0.02,0.01 h -0.02 -0.02 l -0.01,0.01 h -0.02 c -0.25,0 -0.49,-0.26 -0.49,-0.48 0,-0.13 0.05,-0.19 0.16,-0.3 0.21,-0.2 0.34,-0.46 0.34,-0.81 0,-0.42 -0.61,-2.7 -1.77,-2.7 -0.51,0 -0.74,0.35 -0.74,0.87 0,0.56 0.27,1.28 0.58,2.1 0.06,0.17 0.11,0.31 0.11,0.5 0,0.45 -0.31,0.82 -0.81,0.82 -0.94,0 -1.32,-1.45 -1.32,-1.53 0,-0.1 0.1,-0.1 0.12,-0.1 0.1,0 0.11,0.02 0.16,0.17 0.29,1.01 0.72,1.24 1.01,1.24 0.08,0 0.25,0 0.25,-0.32 0,-0.25 -0.1,-0.52 -0.17,-0.7 -0.44,-1.15 -0.57,-1.6 -0.57,-2.03 0,-1.07 0.88,-1.23 1.33,-1.23 1.68,0 2.25,3.28 2.25,3.8 z"
           style="fill:#217b21;stroke-width:0"
           id="path216" /><path
           inkscape:connector-curvature="0"
           d="m 231.97,477.59 v 0.07 0.07 l -0.01,0.07 -0.01,0.06 -0.02,0.07 -0.01,0.06 -0.02,0.06 -0.03,0.06 -0.02,0.05 -0.03,0.06 -0.03,0.05 -0.04,0.05 -0.03,0.04 -0.04,0.05 -0.04,0.04 -0.04,0.04 -0.05,0.04 -0.04,0.03 -0.05,0.04 -0.05,0.03 -0.05,0.03 -0.05,0.02 -0.06,0.03 -0.06,0.02 -0.05,0.02 -0.06,0.01 -0.06,0.02 -0.06,0.01 -0.06,0.01 h -0.06 l -0.07,0.01 h -0.06 l -0.01,-0.2 c 0.38,0 0.7,-0.25 0.7,-0.77 0,-0.17 -0.08,-0.85 -0.39,-1.34 -0.27,-0.41 -0.69,-0.63 -1.04,-0.63 v 0 c -0.35,0 -0.7,0.22 -0.7,0.77 0,0.28 0.14,0.97 0.41,1.36 0.3,0.43 0.71,0.61 1.02,0.61 l 0.01,0.2 c -1.04,0 -2.02,-0.97 -2.02,-1.92 0,-0.7 0.52,-1.22 1.28,-1.22 1,0 2,0.92 2,1.92 z"
           style="fill:#217b21;stroke-width:0"
           id="path218" /><path
           inkscape:connector-curvature="0"
           d="m 235.15,476.87 v -0.02 l -0.01,-0.01 v -0.01 -0.02 l -0.01,-0.02 v -0.01 l -0.01,-0.03 -0.01,-0.04 -0.01,-0.03 v -0.04 l -0.01,-0.01 v -0.02 l -0.01,-0.01 v -0.02 -0.01 l -0.01,-0.02 v -0.01 l -0.01,-0.01 v -0.01 -0.02 l -0.01,-0.01 v 0 -0.01 -0.01 0 h -0.01 v -0.01 0 0 0 0 0 c -0.13,-0.22 -0.41,-0.59 -0.85,-0.59 -0.48,0 -0.48,0.45 -0.48,0.57 0,0.41 0.2,0.91 0.39,1.42 0.06,0.13 0.1,0.24 0.1,0.35 0,0.36 -0.31,0.6 -0.66,0.6 -0.7,0 -1.02,-0.95 -1.02,-1.07 0,-0.09 0.1,-0.09 0.12,-0.09 0.1,0 0.11,0.04 0.13,0.11 0.16,0.57 0.47,0.85 0.74,0.85 0.12,0 0.18,-0.07 0.18,-0.24 0,-0.16 -0.06,-0.31 -0.13,-0.47 -0.37,-0.96 -0.37,-1.16 -0.37,-1.35 0,-0.11 0,-0.43 0.26,-0.66 0.2,-0.16 0.47,-0.22 0.71,-0.22 0.45,0 0.68,0.24 0.91,0.46 0.16,-0.45 0.63,-0.46 0.71,-0.46 0.24,0 0.42,0.14 0.55,0.37 0.16,0.27 0.25,0.67 0.25,0.69 0,0.1 -0.09,0.1 -0.11,0.1 -0.1,0 -0.11,-0.03 -0.16,-0.22 -0.08,-0.33 -0.21,-0.74 -0.51,-0.74 -0.18,0 -0.23,0.16 -0.23,0.34 0,0.12 0.06,0.37 0.11,0.55 0.04,0.18 0.11,0.47 0.15,0.62 l 0.16,0.62 c 0.04,0.17 0.12,0.48 0.12,0.52 0,0.13 -0.11,0.22 -0.23,0.22 -0.26,0 -0.31,-0.2 -0.37,-0.43 z"
           style="fill:#217b21;stroke-width:0"
           id="path220" /><path
           inkscape:connector-curvature="0"
           d="m 238.62,478.49 h 0.72 c 0.13,0 0.22,0 0.22,0.15 0,0.1 -0.09,0.1 -0.21,0.1 h -0.66 l 0.26,1.03 c 0,0.03 0.02,0.07 0.02,0.09 0,0.13 -0.1,0.23 -0.24,0.23 -0.18,0 -0.28,-0.12 -0.33,-0.3 -0.05,-0.18 0.04,0.16 -0.27,-1.05 h -0.71 c -0.13,0 -0.22,0 -0.22,-0.16 0,-0.09 0.08,-0.09 0.21,-0.09 h 0.66 l -0.41,-1.64 c -0.04,-0.18 -0.11,-0.43 -0.11,-0.52 0,-0.41 0.35,-0.66 0.75,-0.66 0.78,0 1.22,0.97 1.22,1.06 0,0.1 -0.09,0.1 -0.11,0.1 -0.09,0 -0.09,-0.02 -0.15,-0.14 -0.2,-0.43 -0.55,-0.82 -0.94,-0.82 -0.14,0 -0.24,0.09 -0.24,0.34 0,0.07 0.03,0.21 0.04,0.28 z"
           style="fill:#217b21;stroke-width:0"
           id="path222" /></g>      <g
         inkscape:label="name"
         transform="rotate(-180,152,213)"
         id="g240">
        <path
           inkscape:connector-curvature="0"
           d="M 157,213 H 147"
           style="fill:none;stroke:#ff0000;stroke-width:1;stroke-linecap:round;stroke-linejoin:round;stroke-dasharray:none;marker-end:url(#arrowCurrentEnd)"
           inkscape:label="none"
           id="path226" />
        <g
           style="font-style:normal;font-variant:normal;font-weight:normal;font-stretch:normal;letter-spacing:normal;word-spacing:normal;text-anchor:start;fill:none;fill-opacity:1;fill-rule:evenodd;stroke:#000000;stroke-linecap:butt;stroke-linejoin:miter;stroke-miterlimit:10.43299961;stroke-dasharray:none;stroke-dashoffset:0;stroke-opacity:1"
           id="g238"
           xml:space="preserve"
           stroke-miterlimit="10.433"
           font-style="normal"
           font-variant="normal"
           font-weight="normal"
           font-stretch="normal"
           font-size-adjust="none"
           letter-spacing="normal"
           word-spacing="normal"
           ns0:text=" $i_{out}$"
           ns0:preamble="C:\\Program Files\\Inkscape\\share\\extensions/textextLib/CircuitSymbolsLatexPreamble.tex"
           transform="matrix(-0.739645,0,0,0.739645,322.81362,-147.50692)"><path
             inkscape:connector-curvature="0"
             d="m 226.26,483.44 v 0.02 0.02 0.02 0.02 l -0.01,0.01 v 0.02 l -0.01,0.02 v 0.01 l -0.01,0.02 -0.01,0.01 v 0.02 l -0.01,0.01 -0.01,0.02 -0.01,0.01 -0.01,0.01 -0.01,0.02 -0.02,0.01 -0.01,0.01 -0.01,0.01 -0.02,0.01 -0.01,0.01 -0.02,0.01 -0.01,0.01 h -0.02 l -0.02,0.01 -0.02,0.01 H 226 225.98 l -0.02,0.01 h -0.02 -0.02 -0.02 c -0.27,0 -0.54,-0.26 -0.54,-0.53 0,-0.18 0.14,-0.35 0.38,-0.35 0.22,0 0.52,0.23 0.52,0.52 z"
             style="fill:#ff0000;stroke-width:0"
             id="path228" /><path
             inkscape:connector-curvature="0"
             d="m 225.51,479.71 0.01,0.02 0.01,0.03 0.01,0.02 0.01,0.02 v 0.03 l 0.01,0.02 0.01,0.01 0.01,0.02 v 0.02 l 0.01,0.02 0.01,0.01 v 0.02 l 0.01,0.01 v 0.02 l 0.01,0.02 0.01,0.03 0.01,0.03 0.01,0.02 v 0.01 l 0.01,0.02 0.01,0.01 v 0.02 l 0.01,0.02 0.01,0.02 v 0.01 l 0.01,0.03 0.01,0.02 0.01,0.02 0.01,0.03 c 0.07,0.19 0.12,0.33 0.12,0.52 0,0.45 -0.31,0.82 -0.81,0.82 -0.94,0 -1.32,-1.45 -1.32,-1.53 0,-0.1 0.1,-0.1 0.12,-0.1 0.1,0 0.11,0.02 0.16,0.17 0.27,0.94 0.67,1.24 1.01,1.24 0.08,0 0.25,0 0.25,-0.32 0,-0.21 -0.07,-0.42 -0.11,-0.52 -0.08,-0.26 -0.53,-1.41 -0.69,-1.84 -0.1,-0.25 -0.23,-0.58 -0.23,-0.79 0,-0.47 0.34,-0.81 0.82,-0.81 0.94,0 1.3,1.44 1.3,1.53 0,0.1 -0.09,0.1 -0.12,0.1 -0.1,0 -0.1,-0.03 -0.14,-0.18 -0.19,-0.63 -0.51,-1.24 -1.02,-1.24 -0.17,0 -0.24,0.1 -0.24,0.33 0,0.25 0.06,0.39 0.29,1 z"
             style="fill:#ff0000;stroke-width:0"
             id="path230" /><path
             inkscape:connector-curvature="0"
             d="m 230.58,477.59 v 0.07 l -0.01,0.07 -0.01,0.07 -0.01,0.06 -0.01,0.07 -0.02,0.06 -0.02,0.06 -0.02,0.06 -0.03,0.05 -0.03,0.06 -0.03,0.05 -0.03,0.05 -0.04,0.04 -0.04,0.05 -0.04,0.04 -0.04,0.04 -0.04,0.04 -0.05,0.03 -0.05,0.04 -0.05,0.03 -0.05,0.03 -0.05,0.02 -0.06,0.03 -0.05,0.02 -0.06,0.02 -0.06,0.01 -0.06,0.02 -0.06,0.01 -0.06,0.01 h -0.06 l -0.07,0.01 h -0.06 c -1.03,0 -2.01,-0.97 -2.01,-1.92 0,-0.7 0.51,-1.22 1.27,-1.22 l 0.01,0.2 c -0.35,0 -0.7,0.22 -0.7,0.77 0,0.28 0.13,0.97 0.4,1.36 0.3,0.43 0.71,0.61 1.02,0.61 0.38,0 0.7,-0.25 0.7,-0.77 0,-0.17 -0.08,-0.85 -0.39,-1.34 -0.26,-0.41 -0.68,-0.63 -1.03,-0.63 v 0 l -0.01,-0.2 c 1,0 2.01,0.92 2.01,1.92 z"
             style="fill:#ff0000;stroke-width:0"
             id="path232" /><path
             inkscape:connector-curvature="0"
             d="m 233.75,476.87 v -0.02 -0.01 l -0.01,-0.01 v -0.02 -0.02 l -0.01,-0.01 -0.01,-0.03 v -0.04 l -0.01,-0.03 -0.01,-0.04 -0.01,-0.01 v -0.02 -0.01 l -0.01,-0.02 v -0.01 l -0.01,-0.02 v -0.01 -0.01 l -0.01,-0.01 v -0.02 -0.01 h -0.01 v -0.01 -0.01 0 0 -0.01 0 h -0.01 v 0 0 0 c -0.13,-0.22 -0.41,-0.59 -0.84,-0.59 -0.49,0 -0.49,0.45 -0.49,0.57 0,0.41 0.2,0.91 0.4,1.42 0.05,0.13 0.09,0.24 0.09,0.35 0,0.36 -0.3,0.6 -0.66,0.6 -0.7,0 -1.01,-0.95 -1.01,-1.07 0,-0.09 0.09,-0.09 0.11,-0.09 0.1,0 0.11,0.04 0.13,0.11 0.17,0.57 0.48,0.85 0.75,0.85 0.12,0 0.17,-0.07 0.17,-0.24 0,-0.16 -0.05,-0.31 -0.12,-0.47 -0.38,-0.96 -0.38,-1.16 -0.38,-1.35 0,-0.11 0,-0.43 0.26,-0.66 0.2,-0.16 0.47,-0.22 0.72,-0.22 0.44,0 0.68,0.24 0.91,0.46 0.15,-0.45 0.62,-0.46 0.7,-0.46 0.24,0 0.42,0.14 0.56,0.37 0.15,0.27 0.25,0.67 0.25,0.69 0,0.1 -0.1,0.1 -0.12,0.1 -0.1,0 -0.11,-0.03 -0.16,-0.22 -0.08,-0.33 -0.21,-0.74 -0.51,-0.74 -0.18,0 -0.23,0.16 -0.23,0.34 0,0.12 0.06,0.37 0.11,0.55 0.05,0.18 0.12,0.47 0.15,0.62 l 0.16,0.62 c 0.04,0.17 0.12,0.48 0.12,0.52 0,0.13 -0.11,0.22 -0.23,0.22 -0.26,0 -0.31,-0.2 -0.36,-0.43 z"
             style="fill:#ff0000;stroke-width:0"
             id="path234" /><path
             inkscape:connector-curvature="0"
             d="m 237.23,478.49 h 0.71 c 0.13,0 0.22,0 0.22,0.15 0,0.1 -0.09,0.1 -0.21,0.1 h -0.66 l 0.26,1.03 c 0,0.03 0.02,0.07 0.02,0.09 0,0.13 -0.1,0.23 -0.24,0.23 -0.17,0 -0.28,-0.12 -0.33,-0.3 -0.05,-0.18 0.04,0.16 -0.26,-1.05 h -0.72 c -0.13,0 -0.22,0 -0.22,-0.16 0,-0.09 0.08,-0.09 0.21,-0.09 h 0.66 l -0.41,-1.64 c -0.04,-0.18 -0.1,-0.43 -0.1,-0.52 0,-0.41 0.35,-0.66 0.74,-0.66 0.78,0 1.22,0.97 1.22,1.06 0,0.1 -0.09,0.1 -0.11,0.1 -0.08,0 -0.09,-0.02 -0.15,-0.14 -0.19,-0.43 -0.55,-0.82 -0.93,-0.82 -0.15,0 -0.25,0.09 -0.25,0.34 0,0.07 0.03,0.21 0.04,0.28 z"
             style="fill:#ff0000;stroke-width:0"
             id="path236" /></g>      </g>
      <g
         inkscape:label="name"
         transform="rotate(-90,116,210)"
         id="g250">
        <path
           d="m 123.5,209.99999 a 22.5,22.5 0 0 1 -15,0"
           style="fill:none;stroke:#217b21;stroke-width:1;stroke-linecap:round;stroke-linejoin:round;stroke-dasharray:none;marker-start:url(#arrowVoltageStart)"
           sodipodi:cx="116"
           sodipodi:cy="188.78679"
           sodipodi:end="1.9106332"
           sodipodi:open="true"
           sodipodi:rx="22.5"
           sodipodi:ry="22.5"
           sodipodi:start="1.2309594"
           sodipodi:type="arc"
           inkscape:label="arc"
           id="path242" />
        <g
           style="font-style:normal;font-variant:normal;font-weight:normal;font-stretch:normal;letter-spacing:normal;word-spacing:normal;text-anchor:start;fill:none;fill-opacity:1;fill-rule:evenodd;stroke:#000000;stroke-linecap:butt;stroke-linejoin:miter;stroke-miterlimit:10.43299961;stroke-dasharray:none;stroke-dashoffset:0;stroke-opacity:1"
           id="g248"
           xml:space="preserve"
           stroke-miterlimit="10.433"
           font-style="normal"
           font-variant="normal"
           font-weight="normal"
           font-stretch="normal"
           font-size-adjust="none"
           letter-spacing="normal"
           word-spacing="normal"
           ns0:text=" $v_d$"
           ns0:preamble="C:\\Program Files\\Inkscape\\share\\extensions/textextLib/CircuitSymbolsLatexPreamble.tex"
           transform="matrix(0,0.739645,0.739645,0,-238.03108,49.813418)"><path
             inkscape:connector-curvature="0"
             d="m 228.1,480.93 v 0.02 0.03 0.02 0.03 l -0.01,0.02 v 0.02 0.02 0.02 l -0.01,0.04 -0.01,0.04 v 0.04 l -0.01,0.04 -0.01,0.03 -0.02,0.03 -0.01,0.03 -0.01,0.03 -0.02,0.02 -0.01,0.03 -0.02,0.02 -0.01,0.02 -0.02,0.02 -0.02,0.02 -0.01,0.01 -0.02,0.02 -0.02,0.01 -0.02,0.01 -0.02,0.01 -0.02,0.01 -0.01,0.01 -0.02,0.01 h -0.02 l -0.02,0.01 h -0.02 -0.02 l -0.01,0.01 h -0.02 c -0.25,0 -0.49,-0.26 -0.49,-0.48 0,-0.13 0.05,-0.19 0.16,-0.3 0.21,-0.2 0.34,-0.46 0.34,-0.81 0,-0.42 -0.61,-2.7 -1.77,-2.7 -0.51,0 -0.74,0.35 -0.74,0.87 0,0.56 0.27,1.28 0.58,2.1 0.06,0.17 0.11,0.31 0.11,0.5 0,0.45 -0.31,0.82 -0.81,0.82 -0.94,0 -1.32,-1.45 -1.32,-1.53 0,-0.1 0.1,-0.1 0.12,-0.1 0.1,0 0.11,0.02 0.16,0.17 0.29,1.01 0.72,1.24 1.01,1.24 0.08,0 0.25,0 0.25,-0.32 0,-0.25 -0.1,-0.52 -0.17,-0.7 -0.44,-1.15 -0.57,-1.6 -0.57,-2.03 0,-1.07 0.88,-1.23 1.33,-1.23 1.68,0 2.25,3.28 2.25,3.8 z"
             style="fill:#217b21;stroke-width:0"
             id="path244" /><path
             inkscape:connector-curvature="0"
             d="m 232.25,480.36 v 0 0 0 0 0 h 0.01 v 0.01 0 0 0 0.01 0 0 0.01 0 0.01 h 0.01 v 0.01 0.01 0.01 0 0.01 0 h 0.01 v 0.01 0 0.01 0 0 0 0 0 0 0.01 0 0 0 0 0 0 c 0,0.03 -0.03,0.1 -0.11,0.1 -0.14,0 -0.72,-0.06 -0.9,-0.07 -0.05,-0.01 -0.15,-0.02 -0.15,-0.16 0,-0.1 0.1,-0.1 0.18,-0.1 0.34,0 0.34,-0.05 0.34,-0.1 0,-0.05 -0.02,-0.09 -0.03,-0.16 l -0.4,-1.58 c -0.14,0.23 -0.38,0.41 -0.72,0.41 v -0.2 c 0.49,0 0.62,-0.53 0.62,-0.6 0,-0.03 -0.01,-0.08 -0.02,-0.1 l -0.33,-1.3 c -0.05,-0.19 -0.2,-0.33 -0.35,-0.47 -0.06,-0.05 -0.34,-0.27 -0.65,-0.27 -0.25,0 -0.51,0.18 -0.51,0.67 0,0.37 0.21,1.13 0.37,1.41 0.32,0.56 0.68,0.66 0.87,0.66 v 0.2 c -0.89,0 -1.8,-0.98 -1.8,-1.98 0,-0.68 0.45,-1.16 1.05,-1.16 0.38,0 0.72,0.22 1,0.49 0.13,-0.42 0.53,-0.49 0.72,-0.49 0.25,0 0.42,0.15 0.55,0.37 0.15,0.27 0.24,0.67 0.24,0.69 0,0.1 -0.09,0.1 -0.11,0.1 -0.1,0 -0.1,-0.03 -0.15,-0.22 -0.09,-0.33 -0.22,-0.74 -0.51,-0.74 -0.19,0 -0.23,0.15 -0.23,0.34 0,0.13 0.01,0.19 0.03,0.28 z"
             style="fill:#217b21;stroke-width:0"
             id="path246" /></g>      </g>
    </g>
    <g
       id="g514"
       transform="rotate(-90,101.58101,237.92967)"
       inkscape:label="GND">
      <g
         id="g508"
         inkscape:label="GND">
        <path
           id="path506"
           inkscape:label="none"
           style="fill:none;stroke:#000000;stroke-width:1;stroke-linecap:round;stroke-linejoin:round;stroke-dasharray:none"
           d="m 110.89872,260.56404 -0.74246,-74.21538"
           inkscape:connector-curvature="0"
           sodipodi:nodetypes="cc" />
      </g>
      <g
         transform="matrix(0,0.739645,0.739645,0,-239.64745,41.786236)"
         ns0:preamble="C:\\Program Files\\Inkscape\\share\\extensions/textextLib/CircuitSymbolsLatexPreamble.tex"
         ns0:text=" $E$"
         word-spacing="normal"
         letter-spacing="normal"
         font-size-adjust="none"
         font-stretch="normal"
         font-weight="normal"
         font-variant="normal"
         font-style="normal"
         stroke-miterlimit="10.433"
         xml:space="preserve"
         id="g512"
         style="font-style:normal;font-variant:normal;font-weight:normal;font-stretch:normal;letter-spacing:normal;word-spacing:normal;text-anchor:start;fill:none;fill-opacity:1;fill-rule:evenodd;stroke:#000000;stroke-linecap:butt;stroke-linejoin:miter;stroke-miterlimit:10.43299961;stroke-dasharray:none;stroke-dashoffset:0;stroke-opacity:1" />    </g>
    <g
       inkscape:label="GND"
       transform="rotate(-90,92.627481,236.72695)"
       id="g777">
      <g
         transform="matrix(0,1,1,0,-104.6571,104.5)"
         inkscape:label="GND"
         id="g771">
        <path
           sodipodi:nodetypes="cc"
           inkscape:connector-curvature="0"
           d="m 112.0879,224.25237 0,16.1472"
           style="fill:none;stroke:#000000;stroke-width:1;stroke-linecap:round;stroke-linejoin:round;stroke-dasharray:none"
           inkscape:label="none"
           id="path769" />
        <path
           sodipodi:nodetypes="cc"
           inkscape:connector-curvature="0"
           d="m 112.35517,216.18479 c -8.43288,6.24714 -0.56399,4.95422 -0.26727,8.06758"
           style="fill:none;stroke:#000000;stroke-width:0.99691874;stroke-linecap:round;stroke-linejoin:round;stroke-dasharray:none"
           inkscape:label="none"
           id="path769-2" />
      </g>
      <path
         inkscape:connector-curvature="0"
         d="m 101.18813,216.85517 h 10.43906"
         style="fill:none;stroke:#000000;stroke-width:1.02171814;stroke-linecap:round;stroke-linejoin:round;stroke-dasharray:none"
         inkscape:label="none"
         id="path769-2-9" />
    </g>
  </g>
</svg>
